<svg width="82" height="82" viewBox="0 0 82 82" fill="none" xmlns="http://www.w3.org/2000/svg">
<path fill-rule="evenodd" clip-rule="evenodd" d="M38.7244 15.0531C28.6106 16.0587 20.1675 23.443 17.8336 33.3238C17.5435 34.5523 17.2214 36.746 17.2214 37.4936C17.2214 37.8848 17.1849 37.9374 16.7621 38.1528C16.0972 38.492 14.827 39.814 14.4875 40.5203C13.8903 41.7627 13.8565 42.1014 13.8928 46.4985C13.9248 50.3715 13.9357 50.556 14.1689 51.1756C15.0169 53.4294 17.0861 54.9165 19.3825 54.9227C21.051 54.9271 22.2962 54.078 22.9256 52.5067C23.0919 52.0918 23.1104 51.4657 23.1104 46.2559C23.1104 40.9198 23.0948 40.4216 22.9122 39.8968C22.5397 38.8269 21.2907 37.7484 20.1774 37.5354C19.7894 37.4612 19.7929 37.548 20.0964 35.4713C21.0757 28.7716 25.6473 22.628 31.8398 19.6897C40.0379 15.7998 49.5021 17.4048 55.9231 23.7737C59.348 27.1709 61.5915 31.8533 62.0378 36.5355L62.1273 37.4746L61.7986 37.5375C61.1272 37.666 60.3825 38.1116 59.8333 38.7135C58.8695 39.7696 58.8934 39.6021 58.8479 45.6216C58.8061 51.1494 58.8584 52.0912 59.2529 52.9074C59.7044 53.8413 60.7803 54.676 61.7731 54.8624L62.1723 54.9375V56.526C62.1723 58.2651 62.048 58.9555 61.5515 59.9708C60.8851 61.3338 59.2745 62.47 57.682 62.7005C57.2693 62.7602 56.0561 62.81 54.986 62.8112L53.0404 62.8133L52.7973 62.2825C52.4777 61.5849 51.5408 60.7336 50.7452 60.4178C50.1781 60.1927 49.9135 60.1678 47.6956 60.1304C44.2712 60.0725 43.5054 60.268 42.3962 61.4834C40.5085 63.552 41.3313 66.7952 43.9973 67.7942C44.5639 68.0064 44.7784 68.0184 47.4707 67.987C50.3314 67.9538 50.3422 67.9528 50.9638 67.6611C51.6839 67.3231 52.5264 66.508 52.8126 65.8722L53.0108 65.4322L55.6736 65.3813C58.6885 65.3236 58.9345 65.2782 60.5329 64.4856C62.3171 63.6011 63.7543 61.9187 64.411 59.9455C64.6793 59.1399 64.7022 58.9207 64.7417 56.7852L64.7841 54.4908L65.3447 54.1738C66.0606 53.7693 67.1446 52.6111 67.5052 51.8657C68.0744 50.6891 68.1154 50.3087 68.1154 46.2018C68.1154 42.0882 68.0757 41.7221 67.499 40.5203C67.165 39.8243 65.8936 38.4939 65.2476 38.1644L64.8109 37.9418L64.6817 36.5527C64.0082 29.3194 60.1707 22.9517 54.0197 18.8608C50.9679 16.8311 47.2688 15.5009 43.5328 15.0896C42.6298 14.9902 39.5888 14.967 38.7244 15.0531ZM18.4516 40.2624C17.8308 40.483 17.1574 41.0938 16.8119 41.7499L16.519 42.3059V46.2018V50.0977L16.8093 50.6485C17.3224 51.6226 18.1491 52.1949 19.1777 52.2883C19.765 52.3417 19.8223 52.3252 20.1327 52.0143L20.463 51.6835V46.2018V40.7201L20.1472 40.4038C19.8911 40.1473 19.7428 40.0891 19.3638 40.096C19.1066 40.1007 18.6961 40.1757 18.4516 40.2624ZM61.8399 40.4038L61.524 40.7201V46.2018V51.6835L61.8399 51.9998C62.0809 52.2413 62.2554 52.3161 62.577 52.3161C63.6031 52.3161 64.6537 51.6439 65.1752 50.6537L65.468 50.0977V46.2559C65.468 42.4373 65.4665 42.4107 65.2099 41.8419C64.7533 40.8302 63.6389 40.0875 62.577 40.0875C62.2554 40.0875 62.0809 40.1623 61.8399 40.4038ZM44.7093 62.9194C43.7941 63.2898 43.7918 64.7993 44.706 65.2336C45.2339 65.4846 49.3741 65.4948 49.8965 65.2465C50.5447 64.9384 50.7933 64.1307 50.4465 63.4591C50.1388 62.8631 49.8897 62.8127 47.2931 62.8202C45.9976 62.8239 44.8349 62.8686 44.7093 62.9194Z" fill="black" stroke="#F4F5F7" stroke-width="1.23256"/>
<path d="M29.8634 32.1962C30.0876 31.4134 30.9005 30.58 31.6633 30.3512C31.8336 30.3 36.0574 30.2551 41.0496 30.2513C51.2305 30.2435 50.558 30.1923 51.4049 31.0404C52.2258 31.8627 52.1758 31.3952 52.2095 38.5494C52.2383 44.6222 52.2291 44.9897 52.0376 45.4213C51.7332 46.107 51.3182 46.5365 50.6345 46.8727L50.0182 47.1758L45.5246 47.2299L41.031 47.284L40.2839 47.9531C39.873 48.3211 38.6134 49.5508 37.4848 50.6857C36.3562 51.8205 35.3959 52.7491 35.3507 52.7491C35.3056 52.7491 35.2686 51.6728 35.2686 50.3574V47.9658L34.9171 47.6138C34.5675 47.2636 34.5591 47.2615 33.2682 47.2083C31.4091 47.1317 30.606 46.7277 30.0364 45.5828L29.7578 45.023V38.794C29.7578 35.063 29.8002 32.4171 29.8634 32.1962Z" fill="#BFC0FF" stroke="#595DFF" stroke-width="1.23256" stroke-linejoin="round"/>
<path d="M35.1487 37.8419C35.3301 37.4623 35.509 37.2819 35.8698 37.1147C36.6303 36.7624 37.5346 37.2607 37.7605 38.1566C38.0195 39.1837 36.9948 40.2518 36.0428 39.9472C35.1787 39.6707 34.7533 38.6691 35.1487 37.8419Z" fill="#595DFF"/>
<path d="M40.2167 39.7366C39.3292 39.1094 39.4196 37.6784 40.3797 37.1574C41.0704 36.7825 41.9135 37.1004 42.2608 37.8665C42.8749 39.2215 41.3987 40.5721 40.2167 39.7366Z" fill="#595DFF"/>
<path d="M44.2351 38.1566C44.3423 37.7315 44.8028 37.1746 45.1312 37.073C46.3619 36.6921 47.4101 37.9767 46.8408 39.1683C46.552 39.7731 45.9925 40.0765 45.3546 39.9743C44.6142 39.8557 44.0413 38.9254 44.2351 38.1566Z" fill="#595DFF"/>
</svg>
