<svg width="82" height="82" viewBox="0 0 82 82" fill="none" xmlns="http://www.w3.org/2000/svg">
<path d="M55.139 23H12.861C11.8332 23 11 23.8553 11 24.9103V59.0897C11 60.1447 11.8332 61 12.861 61H55.139C56.1668 61 57 60.1447 57 59.0897V24.9103C57 23.8553 56.1668 23 55.139 23Z" fill="url(#paint0_linear_4204_44992)"/>
<path d="M59.1795 18H17.8205C16.8151 18 16 18.8553 16 19.9103V54.0897C16 55.1447 16.8151 56 17.8205 56H59.1795C60.1849 56 61 55.1447 61 54.0897V19.9103C61 18.8553 60.1849 18 59.1795 18Z" fill="#F4F5F7" stroke="#131318" stroke-miterlimit="10"/>
<path d="M19.9104 21.8843C20.4973 21.8843 20.9731 21.3906 20.9731 20.7817C20.9731 20.1728 20.4973 19.6792 19.9104 19.6792C19.3235 19.6792 18.8477 20.1728 18.8477 20.7817C18.8477 21.3906 19.3235 21.8843 19.9104 21.8843Z" fill="#131318"/>
<path d="M23.1057 21.8843C23.6926 21.8843 24.1684 21.3906 24.1684 20.7817C24.1684 20.1728 23.6926 19.6792 23.1057 19.6792C22.5188 19.6792 22.043 20.1728 22.043 20.7817C22.043 21.3906 22.5188 21.8843 23.1057 21.8843Z" fill="#131318"/>
<path d="M26.301 21.8843C26.8879 21.8843 27.3637 21.3906 27.3637 20.7817C27.3637 20.1728 26.8879 19.6792 26.301 19.6792C25.7141 19.6792 25.2383 20.1728 25.2383 20.7817C25.2383 21.3906 25.7141 21.8843 26.301 21.8843Z" fill="#131318"/>
<path fill-rule="evenodd" clip-rule="evenodd" d="M51.1582 23.3059C51.2351 23.3698 52.131 25.202 53.149 27.3772L55 31.3321V32.5084C55 33.4896 54.9784 33.7547 54.8701 34.1074C54.6241 34.9082 54.036 35.613 53.3358 35.9462L52.957 36.1264L52.9537 44.0133L52.9504 51.9002L52.7974 52.0449L52.6444 52.1895H38.9907H25.3371L25.1933 52.0355L25.0496 51.8816L25.0463 44.004L25.043 36.1264L24.6642 35.9462C23.964 35.613 23.3759 34.9082 23.1299 34.1074C23.0216 33.7547 23 33.4896 23 32.5084V31.3321L24.851 27.3772C25.869 25.202 26.7649 23.3698 26.8418 23.3059C26.9738 23.196 27.6512 23.1895 39 23.1895C50.3488 23.1895 51.0262 23.196 51.1582 23.3059ZM51.7894 26.6655C52.4419 28.0644 53.1621 29.6056 53.39 30.0903L53.8044 30.9716H51.7697H49.7349L48.9908 27.6625C48.5816 25.8426 48.2319 24.301 48.214 24.237C48.1836 24.1292 48.2703 24.1207 49.3923 24.1214L50.6033 24.122L51.7894 26.6655ZM47.9872 27.463C48.4002 29.3012 48.752 30.8431 48.769 30.8894C48.7937 30.9562 48.357 30.9698 46.6321 30.9559L44.4643 30.9383L43.8921 27.7124C43.5774 25.9381 43.3041 24.4042 43.2848 24.3036L43.2497 24.1206H45.243H47.2364L47.9872 27.463ZM42.3367 24.2703C42.4052 24.5763 43.4959 30.7994 43.4959 30.8838C43.4959 30.9545 43.1049 30.9716 41.4793 30.9716H39.4628V27.5461V24.1206H40.883C42.3019 24.1206 42.3033 24.1208 42.3367 24.2703ZM38.5372 27.5461V30.9716H36.5207C34.9779 30.9716 34.5041 30.9525 34.5041 30.8904C34.5041 30.8094 35.5992 24.5538 35.6631 24.2703C35.6967 24.1208 35.6982 24.1206 37.117 24.1206H38.5372V27.5461ZM34.715 24.3036C34.6956 24.4042 34.4228 25.9381 34.1088 27.7124L33.5379 30.9383L31.369 30.9559C29.6432 30.9698 29.2063 30.9562 29.2311 30.8894C29.2481 30.8431 29.6002 29.3012 30.0134 27.463L30.7647 24.1206H32.7575H34.7503L34.715 24.3036ZM29.7861 24.237C29.7681 24.301 29.4184 25.8426 29.0092 27.6625L28.2651 30.9716H26.2303H24.1956L24.61 30.0903C24.8379 29.6056 25.5581 28.0644 26.2106 26.6655L27.3967 24.122L28.6077 24.1214C29.7297 24.1207 29.8164 24.1292 29.7861 24.237ZM54.0624 32.9171C54.0401 33.7876 54.0238 33.892 53.8636 34.1975C53.487 34.9152 52.8926 35.2926 52.0555 35.3451C51.5693 35.3756 51.4785 35.3611 51.1068 35.1933C50.6018 34.9652 50.1695 34.505 49.9788 33.9922C49.8685 33.6957 49.843 33.4715 49.843 32.7982V31.9693H51.9649H54.0868L54.0624 32.9171ZM48.9049 32.8506C48.8725 33.8807 48.7779 34.1639 48.2915 34.687C47.8637 35.1472 47.4404 35.3246 46.7686 35.3256C46.3685 35.3261 46.1652 35.2918 45.9341 35.1851C45.4817 34.9762 45.0874 34.584 44.8741 34.131C44.6969 33.7549 44.6861 33.681 44.686 32.8506L44.686 31.9693H46.8093H48.9327L48.9049 32.8506ZM43.6942 32.8221C43.6942 33.9347 43.6104 34.1923 43.0713 34.7355C42.5599 35.2509 42.1885 35.3914 41.4547 35.3473C40.6472 35.2987 40.0289 34.8904 39.6797 34.1749C39.5107 33.8289 39.494 33.7244 39.473 32.8838L39.4501 31.9693H41.5722H43.6942V32.8221ZM38.527 32.8838C38.506 33.7244 38.4893 33.8289 38.3203 34.1749C37.9711 34.8904 37.3528 35.2987 36.5453 35.3473C35.8096 35.3915 35.4389 35.2509 34.9333 34.7355C34.3932 34.185 34.3051 33.9157 34.3055 32.8173L34.3058 31.9693H36.4278H38.5499L38.527 32.8838ZM33.314 32.8506C33.3139 33.681 33.3031 33.7549 33.126 34.131C32.9126 34.584 32.5183 34.9762 32.0659 35.1851C31.8348 35.2918 31.6315 35.3261 31.2314 35.3256C30.5596 35.3246 30.1363 35.1472 29.7085 34.687C29.2221 34.1639 29.1275 33.8807 29.0951 32.8506L29.0673 31.9693H31.1907H33.3141L33.314 32.8506ZM28.157 32.7982C28.157 33.4715 28.1315 33.6957 28.0212 33.9922C27.8305 34.505 27.3982 34.9652 26.8932 35.1933C26.5217 35.361 26.4306 35.3756 25.9451 35.3451C25.2958 35.3044 24.8742 35.1134 24.4774 34.6802C24.0518 34.2158 23.9256 33.7854 23.9256 32.7982V31.9693H26.0413H28.157V32.7982ZM44.2959 35.0082C44.3453 35.1011 44.5338 35.311 44.7147 35.4746C45.9825 36.6214 47.8627 36.5372 49.018 35.2819L49.3813 34.887L49.5626 35.1071C49.8547 35.4618 50.1818 35.7439 50.5074 35.9222C50.8549 36.1125 51.4871 36.2927 51.8073 36.2927H52.0248V43.7755V51.2583H50.6364H49.2479L48.9289 51.2785L45.8653 51.2583C43.868 51.245 42.3281 51.2129 42.1736 51.2583H34.0744H25.9752V43.7755V36.2927H26.1806C26.947 36.2927 27.9304 35.7683 28.4691 35.0726L28.6155 34.8835L28.9804 35.2801C29.9443 36.3275 31.4438 36.5823 32.6756 35.908C33.0662 35.6942 33.5773 35.2466 33.7051 35.0063L33.796 34.8354L34.0184 35.1285C34.4787 35.7349 35.3333 36.1972 36.1328 36.2724C37.0391 36.3575 37.8676 36.0442 38.5537 35.3567L39 34.9096L39.4463 35.3567C40.1404 36.0522 40.9166 36.3483 41.8456 36.2718C42.6461 36.2059 43.4737 35.7713 43.948 35.1676L44.206 34.8392L44.2959 35.0082ZM38.8235 39.7544C38.9181 39.8293 39.0261 40.0013 39.0635 40.1368C39.1049 40.2868 39.1316 41.4308 39.1318 43.0604L39.1322 45.7376H39.415C39.7914 45.7376 39.992 45.8838 39.9907 46.1571C39.9896 46.4067 39.9439 46.4887 39.7482 46.5923C39.542 46.7015 28.739 46.7015 28.5328 46.5923C28.3371 46.4887 28.2914 46.4067 28.2903 46.1571C28.289 45.8838 28.4896 45.7376 28.866 45.7376H29.1488L29.1492 43.0604C29.1494 41.4308 29.1761 40.2868 29.2175 40.1368C29.2549 40.0013 29.3629 39.8293 29.4575 39.7544C29.6268 39.6203 29.6961 39.6184 34.1405 39.6184C38.5849 39.6184 38.6542 39.6203 38.8235 39.7544ZM38.1405 43.1441V45.7386L34.124 45.7215L30.1074 45.7044L30.0901 43.127L30.0729 40.5495H34.1066H38.1405V43.1441Z" fill="black"/>
<circle cx="17" cy="41" r="10.5" fill="#F4F5F7" stroke="#595DFF"/>
<path d="M19.4968 46.4395C20.5531 46.4395 21.0813 46.4395 21.4711 46.2284C21.8136 46.043 22.0845 45.7486 22.2408 45.3919C22.4187 44.9859 22.3749 44.4596 22.2872 43.4069L21.8788 38.5069C21.8034 37.6012 21.7656 37.1484 21.5651 36.8056C21.3884 36.5038 21.1254 36.2618 20.81 36.1109C20.4518 35.9395 19.9974 35.9395 19.0885 35.9395L14.9079 35.9395C13.9991 35.9395 13.5447 35.9395 13.1864 36.1109C12.871 36.2618 12.608 36.5038 12.4314 36.8056C12.2308 37.1484 12.1931 37.6012 12.1176 38.5069L11.7093 43.4069C11.6215 44.4596 11.5777 44.9859 11.7556 45.3919C11.9119 45.7486 12.1828 46.043 12.5253 46.2284C12.9152 46.4395 13.4433 46.4395 14.4996 46.4395H19.4968Z" fill="#BFC0FF"/>
<path d="M19.3315 38.8561C19.3315 39.475 19.0857 40.0685 18.6481 40.506C18.2105 40.9436 17.6171 41.1895 16.9982 41.1895C16.3794 41.1895 15.7859 40.9436 15.3483 40.506C14.9107 40.0685 14.6649 39.475 14.6649 38.8561" fill="#BFC0FF"/>
<path d="M19.3315 38.8561C19.3315 39.475 19.0857 40.0685 18.6481 40.506C18.2105 40.9436 17.6171 41.1895 16.9982 41.1895C16.3794 41.1895 15.7859 40.9436 15.3483 40.506C14.9107 40.0685 14.6649 39.475 14.6649 38.8561M12.1176 38.5069L11.7093 43.4069C11.6215 44.4596 11.5777 44.9859 11.7556 45.3919C11.9119 45.7486 12.1828 46.043 12.5253 46.2284C12.9152 46.4395 13.4433 46.4395 14.4996 46.4395H19.4968C20.5531 46.4395 21.0813 46.4395 21.4711 46.2284C21.8136 46.043 22.0845 45.7486 22.2408 45.3919C22.4188 44.9859 22.3749 44.4596 22.2872 43.4069L21.8788 38.5069C21.8034 37.6012 21.7656 37.1484 21.5651 36.8056C21.3884 36.5038 21.1254 36.2618 20.81 36.1109C20.4518 35.9395 19.9974 35.9395 19.0885 35.9395L14.9079 35.9395C13.9991 35.9395 13.5447 35.9395 13.1864 36.1109C12.871 36.2618 12.608 36.5038 12.4314 36.8056C12.2308 37.1484 12.1931 37.6012 12.1176 38.5069Z" stroke="#595DFF" stroke-linecap="round" stroke-linejoin="round"/>
<path d="M71.0867 54.9798C71.6008 54.7799 71.8578 54.6799 71.93 54.5386C71.9925 54.4161 71.9906 54.2707 71.9249 54.1499C71.849 54.0105 71.5895 53.9174 71.0703 53.731L57.8289 48.9777C57.4042 48.8252 57.1918 48.7489 57.0529 48.797C56.9322 48.8388 56.8374 48.9337 56.7956 49.0544C56.7475 49.1932 56.8237 49.4056 56.9762 49.8304L61.7295 63.0718C61.9159 63.591 62.009 63.8505 62.1484 63.9264C62.2692 63.9921 62.4146 63.994 62.5371 63.9315C62.6784 63.8593 62.7784 63.6023 62.9783 63.0882L65.1423 57.5235C65.1815 57.4228 65.2011 57.3725 65.2313 57.3301C65.2581 57.2925 65.291 57.2596 65.3286 57.2328C65.371 57.2026 65.4213 57.183 65.522 57.1438L71.0867 54.9798Z" fill="#131318" stroke="#131318" stroke-linecap="round" stroke-linejoin="round"/>
<defs>
<linearGradient id="paint0_linear_4204_44992" x1="115.545" y1="48" x2="4.76017" y2="41.4441" gradientUnits="userSpaceOnUse">
<stop stop-color="#3034FF"/>
<stop offset="1" stop-color="#3034FF" stop-opacity="0"/>
</linearGradient>
</defs>
</svg>
