<svg width="82" height="82" viewBox="0 0 82 82" fill="none" xmlns="http://www.w3.org/2000/svg">
<ellipse cx="37" cy="69" rx="24" ry="4" fill="url(#paint0_radial_4204_45383)"/>
<circle cx="36.6172" cy="37" r="25" fill="#F4F5F7"/>
<path d="M36.8085 62.9997C33.3248 62.9997 29.9443 62.3176 26.7625 60.9711C23.6893 59.6715 20.9291 57.8107 18.5594 55.4403C16.1891 53.0706 14.3283 50.3104 13.0286 47.2372C11.6828 44.0548 11 40.6749 11 37.1913C11 33.7076 11.6822 30.3271 13.0286 27.1453C14.3283 24.0721 16.1891 21.3119 18.5594 18.9422C20.9298 16.5719 23.6893 14.7111 26.7625 13.4114C29.945 12.0657 33.3248 11.3828 36.8085 11.3828C40.2921 11.3828 43.6726 12.065 46.8544 13.4114C49.9276 14.7111 52.6878 16.5719 55.0575 18.9422C57.4278 21.3119 59.2886 24.0721 60.5883 27.1453C61.9341 30.3278 62.6169 33.7076 62.6169 37.1913C62.6169 40.6749 61.9347 44.0555 60.5883 47.2372C59.2886 50.3104 57.4278 53.0706 55.0575 55.4403C52.6871 57.8107 49.9276 59.6715 46.8544 60.9711C43.672 62.3169 40.2921 62.9997 36.8085 62.9997ZM36.8085 12.4831C30.2083 12.4831 24.0036 15.0535 19.3372 19.72C14.67 24.3864 12.1003 30.5918 12.1003 37.1913C12.1003 43.7907 14.6707 49.9961 19.3372 54.6626C24.0036 59.3297 30.209 61.8995 36.8085 61.8995C43.4079 61.8995 49.6133 59.329 54.2798 54.6626C58.9469 49.9954 61.5167 43.7907 61.5167 37.1913C61.5167 30.5918 58.9462 24.3864 54.2798 19.72C49.6133 15.0528 43.4079 12.4831 36.8085 12.4831Z" fill="#595DFF"/>
<path d="M35.8672 19.5H53.8497C54.66 19.5 55.4351 19.8267 55.937 20.4628C57.0942 21.9295 59.2211 25.0326 60.6172 29.5C62.6172 35.9 61.4505 42.1667 60.6172 44.5H46.6172C45.2365 44.5 44.1172 43.3807 44.1172 42C44.1172 40.6193 45.2365 39.5 46.6172 39.5H46.8672C48.1098 39.5 49.1172 38.4926 49.1172 37.25C49.1172 36.0074 48.1098 35 46.8672 35H31.8672C30.3484 35 29.1172 33.7688 29.1172 32.25C29.1172 30.7312 30.3484 29.5 31.8672 29.5H35.8672C37.1098 29.5 38.1172 28.4926 38.1172 27.25C38.1172 26.0074 37.1098 25 35.8672 25H35.6172C34.2365 25 33.1172 23.8807 33.1172 22.5V22.25C33.1172 20.7312 34.3484 19.5 35.8672 19.5Z" fill="#BFC0FF" stroke="#595DFF"/>
<path d="M29.4819 56.7053L29.4819 56.8729C29.4819 58.0477 28.5296 59 27.3548 59L26.5012 59C24.5541 59 22.6347 58.4618 21.0979 57.2661C19.0559 55.6771 16.2559 53.1704 14.8985 50.4915C12.939 46.624 12.939 47.0107 16.9407 47.0107L30.4901 47.0107C31.6648 47.0107 32.6172 47.9631 32.6172 49.1379C32.6172 50.3126 31.6648 51.265 30.4901 51.265L27.3032 51.265C26.342 51.265 25.5628 52.0442 25.5628 53.0054C25.5628 53.9666 26.342 54.7457 27.3032 54.7457L27.5223 54.7457C28.6046 54.7457 29.4819 55.6231 29.4819 56.7053Z" fill="#BFC0FF" stroke="#595DFF"/>
<circle cx="58.6172" cy="21" r="11.5" fill="#131318" stroke="black"/>
<path d="M61.1644 17.5C61.0994 16.9065 60.8354 16.4455 60.373 16.1171C59.9104 15.789 59.3433 15.6249 58.671 15.6249C58.1797 15.6249 57.7505 15.7107 57.3837 15.8826C57.0169 16.0544 56.7313 16.2907 56.5271 16.5916C56.323 16.8924 56.2211 17.2343 56.2211 17.617C56.2211 17.9373 56.2924 18.2117 56.4352 18.4403C56.578 18.6688 56.7611 18.8584 56.9854 19.0086C57.2094 19.1589 57.4441 19.2822 57.69 19.3778C57.9355 19.4735 58.1614 19.5506 58.3675 19.6094L59.495 19.9375C59.7839 20.0194 60.1065 20.1327 60.4625 20.2773C60.8183 20.4219 61.1599 20.618 61.487 20.8661C61.814 21.1141 62.0841 21.4314 62.2973 21.818C62.5106 22.2049 62.6172 22.6794 62.6172 23.242C62.6172 23.8905 62.4609 24.4762 62.1485 24.9999C61.8358 25.5232 61.3806 25.9392 60.7826 26.2479C60.1847 26.5565 59.4591 26.7109 58.6064 26.7109C57.8112 26.7109 57.124 26.5721 56.544 26.2949C55.964 26.0175 55.5085 25.6309 55.1782 25.1348C54.8475 24.6388 54.6606 24.0626 54.6172 23.4064H56.0048C56.0407 23.8596 56.1827 24.2336 56.4302 24.5284C56.6777 24.8235 56.992 25.0422 57.3734 25.1849C57.7546 25.3274 58.1656 25.3988 58.6064 25.3988C59.1193 25.3988 59.58 25.3079 59.9885 25.1264C60.3971 24.9447 60.7202 24.691 60.9589 24.3646C61.1972 24.0386 61.3165 23.6568 61.3165 23.2192C61.3165 22.8206 61.2135 22.4964 61.0077 22.2466C60.8017 21.9968 60.5307 21.7934 60.1946 21.6375C59.8585 21.4812 59.4952 21.3444 59.105 21.2272L57.7391 20.8052C56.8718 20.5355 56.1852 20.151 55.6795 19.6511C55.1737 19.1511 54.9207 18.497 54.9207 17.6881C54.9207 17.0163 55.0895 16.4293 55.4276 15.9275C55.7654 15.4255 56.2208 15.035 56.7934 14.7557C57.366 14.4765 58.0068 14.3368 58.715 14.3368C59.4232 14.3368 60.0664 14.4744 60.623 14.75C61.1795 15.0254 61.6212 15.4015 61.9482 15.8778C62.2752 16.3543 62.4476 16.8954 62.4658 17.5009H61.1649L61.1644 17.5ZM58.1722 28V13H59.061V28H58.1722Z" fill="white"/>
<defs>
<radialGradient id="paint0_radial_4204_45383" cx="0" cy="0" r="1" gradientUnits="userSpaceOnUse" gradientTransform="translate(55.5 57.6667) rotate(144.197) scale(37.6065 150.128)">
<stop stop-color="#3134FB" stop-opacity="0.17"/>
<stop offset="1" stop-color="#3134FB" stop-opacity="0"/>
</radialGradient>
</defs>
</svg>
