<svg width="82" height="82" viewBox="0 0 82 82" fill="none" xmlns="http://www.w3.org/2000/svg">
<path d="M55.3413 34H17.6587C16.7426 34 16 34.6527 16 35.4578V61.5422C16 62.3473 16.7426 63 17.6587 63H55.3413C56.2574 63 57 62.3473 57 61.5422V35.4578C57 34.6527 56.2574 34 55.3413 34Z" fill="url(#paint0_linear_4204_45481)"/>
<path d="M58.5031 31H24.4969C23.6702 31 23 31.5852 23 32.307V55.693C23 56.4148 23.6702 57 24.4969 57H58.5031C59.3298 57 60 56.4148 60 55.693V32.307C60 31.5852 59.3298 31 58.5031 31Z" fill="#F4F5F7" stroke="#131318" stroke-miterlimit="10"/>
<path d="M23.6975 39.7177C25.3081 39.2838 26.2638 37.6193 25.8323 36L20 37.5713C20.4315 39.1906 22.087 40.1516 23.6975 39.7177Z" fill="#BFC0FF"/>
<path d="M27.6783 27.5072C27.3191 26.1593 26.3601 25.0322 25.0123 24.3737C23.6646 23.7153 22.0384 23.5795 20.4916 23.9962C18.9448 24.413 17.604 25.3481 16.7642 26.5959C15.9244 27.8436 15.6545 29.3019 16.0137 30.6498C16.608 32.8799 16.4926 34.6591 16.1173 36.0111C15.6895 37.5519 15.4756 38.3224 15.5334 38.4771C15.5995 38.6541 15.6473 38.7027 15.8227 38.771C15.9759 38.8307 16.6198 38.6572 17.9074 38.3103L29.8477 35.0934C31.1354 34.7465 31.7792 34.5731 31.8822 34.4443C32.0001 34.297 32.0174 34.2309 31.9866 34.0444C31.9597 33.8814 31.3914 33.3217 30.2547 32.2023C29.2573 31.2201 28.2726 29.7373 27.6783 27.5072Z" fill="#BFC0FF"/>
<path d="M25.8219 36.1781C26.2534 37.7974 25.2976 39.4619 23.6871 39.8958C22.0766 40.3297 20.4211 39.3687 19.9896 37.7494M12.1466 29.7009C11.7547 28.2862 12.1623 26.7566 13.2052 25.7285M22.3001 23.7589C22.6062 23.2052 22.7071 22.5358 22.5311 21.8755C22.1715 20.5261 20.7919 19.7252 19.4498 20.0868C18.1077 20.4484 17.3112 21.8355 17.6708 23.1849C17.8468 23.8452 18.267 24.3742 18.8075 24.6999M30.5246 24.7497C30.1605 23.3274 29.0469 22.2077 27.6324 21.8417M27.6783 27.5072C27.3191 26.1593 26.3601 25.0322 25.0123 24.3737C23.6646 23.7153 22.0384 23.5795 20.4916 23.9962C18.9448 24.413 17.604 25.3481 16.7642 26.5959C15.9244 27.8436 15.6545 29.3019 16.0137 30.6498C16.608 32.8799 16.4926 34.6591 16.1173 36.0111C15.6895 37.5519 15.4756 38.3224 15.5334 38.4771C15.5995 38.6541 15.6473 38.7027 15.8227 38.771C15.9759 38.8307 16.6198 38.6572 17.9074 38.3103L29.8477 35.0934C31.1354 34.7465 31.7792 34.5731 31.8822 34.4443C32.0001 34.297 32.0174 34.2309 31.9866 34.0444C31.9597 33.8814 31.3914 33.3217 30.2547 32.2023C29.2573 31.2201 28.2726 29.7373 27.6783 27.5072Z" stroke="#595DFF" stroke-linecap="round" stroke-linejoin="round"/>
<path d="M33 40L50 40" stroke="black" stroke-linecap="round"/>
<path d="M33 47L50 47" stroke="black" stroke-linecap="round"/>
<circle cx="45" cy="40" r="2.5" fill="#F4F5F7" stroke="black"/>
<circle cx="38" cy="47" r="2.5" fill="#F4F5F7" stroke="black"/>
<defs>
<linearGradient id="paint0_linear_4204_45481" x1="153.215" y1="57.0176" x2="9.66498" y2="49.744" gradientUnits="userSpaceOnUse">
<stop stop-color="#3034FF"/>
<stop offset="1" stop-color="#3034FF" stop-opacity="0"/>
</linearGradient>
</defs>
</svg>
