<svg xmlns="http://www.w3.org/2000/svg" viewBox="0 0 110 46" fill="inherit"><path d="M3 20C1.34315 20 -1.44847e-07 21.3431 0 23C1.44847e-07 24.6569 1.34315 26 3 26L3 20ZM109.121 25.1213C110.293 23.9497 110.293 22.0502 109.121 20.8787L90.0294 1.78679C88.8579 0.615215 86.9584 0.615216 85.7868 1.78679C84.6152 2.95836 84.6152 4.85786 85.7868 6.02943L102.757 23L85.7868 39.9706C84.6152 41.1421 84.6152 43.0416 85.7868 44.2132C86.9584 45.3848 88.8579 45.3848 90.0294 44.2132L109.121 25.1213ZM3 26L107 26L107 20L3 20L3 26Z" fill="#fff"></path></svg>