<svg width="inherit" height="inherit" viewBox="0 0 56 55" fill="none" xmlns="http://www.w3.org/2000/svg"><path d="M8.38281 25.9961C8.38281 37.3328 17.565 46.5229 28.8919 46.5229C34.6658 46.5691 46.4537 43.7859 48.3383 29.3616C46.1211 29.824 41.2115 28.7366 40.1029 23.6326C35.3913 22.4769 27.6458 16.8754 33.2997 6.44562C32.7454 5.89084 30.9729 5.72949 28.6448 5.72949C23.6985 5.72949 19.4082 7.2219 15.8658 10.1405C14.9672 10.8809 14.1325 11.6964 13.3715 12.5773C10.2631 16.1756 8.38281 20.8661 8.38281 25.9961Z" fill="#EBC6A0"></path><path d="M8.67188 25.9961C8.67188 37.3328 17.8541 46.5229 29.1809 46.5229C34.9549 46.5691 36.5713 44.4996 36.5713 44.4996C34.3541 44.9619 28.7693 46.3684 21.1258 42.61C14.3316 38.2733 8.65572 28.1865 14.3096 17.7566C17.3792 7.90163 30.9731 5.72949 28.6451 5.72949C23.6987 5.72949 19.6972 7.2219 16.1549 10.1405C15.2562 10.8809 14.4216 11.6964 13.6606 12.5773C10.5521 16.1756 8.67188 20.8661 8.67188 25.9961Z" fill="#E1B48B"></path><path d="M14.3105 11.9746C6.40716 19.878 6.40716 32.6919 14.3105 40.5953C21.6422 47.927 33.1998 48.4574 41.1428 42.1863" stroke="black" stroke-width="1.00455" stroke-linecap="round"></path><path d="M43.6546 40.0179C47.2396 36.7798 48.2804 31.9227 48.5695 29.6098C42.9029 30.4193 40.5225 25.6586 40.0407 23.5384C28.7074 19.7221 30.8373 10.6464 33.102 6.51326C27.2544 5.23612 20.9504 6.57449 16.0595 10.5284" stroke="black" stroke-width="1.00455" stroke-linecap="round" stroke-linejoin="round"></path><path d="M37.499 11.742L37.6254 10.8931C37.7415 10.1131 38.334 9.4896 39.1071 9.33385L41.205 8.91115C42.5107 8.64807 43.6656 9.79435 43.4123 11.102L43.001 13.2259C42.769 14.4238 41.4712 15.083 40.367 14.5639L38.554 13.7116C37.8061 13.3599 37.3773 12.5594 37.499 11.742Z" fill="#EBC6A0" stroke="black" stroke-width="1.00455"></path><path d="M44.6281 21.7302L44.1527 22.3313C43.6567 22.9584 43.7674 23.8698 44.3992 24.3599L45.5524 25.2544C46.322 25.8513 47.4499 25.5268 47.7845 24.6122L48.1844 23.5192C48.456 22.7768 48.0776 21.9544 47.337 21.6777L46.2593 21.2752C45.6745 21.0567 45.0155 21.2406 44.6281 21.7302ZM45.3829 17.0258L45.7156 17.3967C46.149 17.8798 46.8921 17.9202 47.3753 17.4867C47.9875 16.9375 47.8608 15.9454 47.1301 15.5677L46.6875 15.3389C46.2168 15.0956 45.6391 15.2283 45.3217 15.6526C45.0122 16.0664 45.0378 16.6411 45.3829 17.0258Z" fill="#EBC6A0" stroke="black" stroke-width="1.00455"></path><path d="M17.1594 22.1351L16.4181 22.329C15.6445 22.5314 15.1845 23.3259 15.3941 24.0975L15.7768 25.5059C16.0322 26.4458 17.1283 26.8653 17.946 26.3362L18.9232 25.7039C19.5868 25.2745 19.7795 24.3899 19.3545 23.7233L18.736 22.7533C18.4004 22.2269 17.7635 21.9771 17.1594 22.1351L17.2866 22.621L17.1594 22.1351ZM22.8767 16.8095L22.9192 17.306C22.9746 17.9527 23.5438 18.4321 24.1906 18.3767C25.0101 18.3065 25.5059 17.4378 25.1496 16.6965L24.9338 16.2474C24.7042 15.7698 24.163 15.5282 23.6542 15.6761C23.158 15.8203 22.8326 16.2947 22.8767 16.8095Z" fill="#B58164" stroke="black" stroke-width="1.00455"></path><path d="M32.878 35.3621L33.3567 36.1203C33.7835 36.7965 34.68 36.9946 35.352 36.5613L36.7474 35.6617C37.5659 35.134 37.6343 33.9624 36.8826 33.343L35.8425 32.486C35.2324 31.9834 34.331 32.0673 33.8242 32.674L32.9903 33.6724C32.5901 34.1516 32.5447 34.8342 32.878 35.3621ZM23.3743 36.453L23.8597 36.2519C24.4781 35.9957 24.7717 35.2867 24.5155 34.6683C24.1908 33.8847 23.1824 33.6684 22.5649 34.2498L22.1824 34.61C21.7854 34.9838 21.7168 35.59 22.0203 36.0431C22.3163 36.485 22.883 36.6565 23.3743 36.453Z" fill="#B58164" stroke="black" stroke-width="1.00455"></path><path d="M26.5615 26.1646L26.9327 26.5363C27.4057 27.01 28.1731 27.0105 28.6467 26.5376C29.2469 25.9383 29.0617 24.9237 28.2885 24.5751L27.8095 24.3591C27.3123 24.135 26.7259 24.3031 26.4231 24.7567C26.1278 25.199 26.1857 25.7883 26.5615 26.1646Z" fill="#B58164" stroke="black" stroke-width="1.00455"></path></svg>