<svg width="16" height="16" viewBox="0 0 16 16" fill="none" xmlns="http://www.w3.org/2000/svg">
<path fill-rule="evenodd" clip-rule="evenodd" d="M4.00006 12.6667C4.00006 13.4 4.60006 14 5.33339 14H10.6667C11.4001 14 12.0001 13.4 12.0001 12.6667V6C12.0001 5.26667 11.4001 4.66667 10.6667 4.66667H5.33339C4.60006 4.66667 4.00006 5.26667 4.00006 6V12.6667ZM6.00004 6H10C10.3667 6 10.6667 6.3 10.6667 6.66667V12C10.6667 12.3667 10.3667 12.6667 10 12.6667H6.00004C5.63337 12.6667 5.33337 12.3667 5.33337 12V6.66667C5.33337 6.3 5.63337 6 6.00004 6ZM10.3334 2.66667L9.86004 2.19333C9.74004 2.07333 9.56671 2 9.39337 2H6.60671C6.43337 2 6.26004 2.07333 6.14004 2.19333L5.66671 2.66667H4.00004C3.63337 2.66667 3.33337 2.96667 3.33337 3.33333C3.33337 3.7 3.63337 4 4.00004 4H12C12.3667 4 12.6667 3.7 12.6667 3.33333C12.6667 2.96667 12.3667 2.66667 12 2.66667H10.3334Z" fill="#E72323"/>
</svg>
