<svg width="16" height="16" viewBox="0 0 16 16" fill="none" xmlns="http://www.w3.org/2000/svg">
<path fill-rule="evenodd" clip-rule="evenodd" d="M5 2.5C4.33696 2.5 3.70107 2.76339 3.23223 3.23223C2.76339 3.70107 2.5 4.33696 2.5 5V11.0027C2.5 11.665 2.76311 12.3002 3.23145 12.7685C3.69979 13.2369 4.335 13.5 4.99733 13.5H11.0027C11.6649 13.5 12.3 13.237 12.7684 12.7687C13.2367 12.3006 13.4998 11.6655 13.5 11.0033C13.5 11.0033 13.5 11.0034 13.5 11.0033V4.99733C13.5 4.66938 13.4354 4.34464 13.3099 4.04165C13.1844 3.73866 13.0004 3.46335 12.7685 3.23145C12.5366 2.99955 12.2613 2.8156 11.9584 2.6901C11.6554 2.5646 11.3306 2.5 11.0027 2.5H5ZM5 1.5C4.07174 1.5 3.1815 1.86875 2.52513 2.52513C1.86875 3.1815 1.5 4.07174 1.5 5V11.0027C1.5 11.9302 1.86847 12.8198 2.52435 13.4757C3.18022 14.1315 4.06978 14.5 4.99733 14.5H11.0027C11.9301 14.5 12.8195 14.1316 13.4754 13.4759C14.1312 12.8202 14.4998 11.9309 14.5 11.0034V4.99733C14.5 4.53806 14.4095 4.08328 14.2338 3.65896C14.058 3.23465 13.8004 2.8491 13.4757 2.52435C13.1509 2.19959 12.7654 1.94198 12.341 1.76622C11.9167 1.59046 11.4619 1.5 11.0027 1.5H5Z" fill="white"/>
<path fill-rule="evenodd" clip-rule="evenodd" d="M5.41333 6.9C5.68947 6.9 5.91333 7.12386 5.91333 7.4V11C5.91333 11.2761 5.68947 11.5 5.41333 11.5C5.13719 11.5 4.91333 11.2761 4.91333 11V7.4C4.91333 7.12386 5.13719 6.9 5.41333 6.9Z" fill="white"/>
<path fill-rule="evenodd" clip-rule="evenodd" d="M9.31267 7.9C9.04745 7.9 8.7931 8.00535 8.60556 8.19289C8.41802 8.38043 8.31267 8.63478 8.31267 8.9V11C8.31267 11.2761 8.08881 11.5 7.81267 11.5C7.53653 11.5 7.31267 11.2761 7.31267 11V8.9C7.31267 8.36956 7.52338 7.86086 7.89845 7.48578C8.27353 7.11071 8.78224 6.9 9.31267 6.9C9.8431 6.9 10.3518 7.11071 10.7269 7.48578C11.102 7.86086 11.3127 8.36956 11.3127 8.9V11C11.3127 11.2761 11.0888 11.5 10.8127 11.5C10.5365 11.5 10.3127 11.2761 10.3127 11V8.9C10.3127 8.63478 10.2073 8.38043 10.0198 8.19289C9.83224 8.00535 9.57788 7.9 9.31267 7.9Z" fill="white"/>
<path fill-rule="evenodd" clip-rule="evenodd" d="M5.40978 4.72533C5.49538 4.72495 5.58022 4.74149 5.65941 4.77398C5.7386 4.80647 5.8106 4.85429 5.87126 4.91469C5.93193 4.97509 5.98007 5.04687 6.01291 5.12592C6.04576 5.20497 6.06267 5.28973 6.06267 5.37533C6.06266 5.50377 6.02461 5.62932 5.95332 5.73615C5.88202 5.84298 5.78068 5.92629 5.66207 5.97557C5.54346 6.02486 5.41292 6.03789 5.28692 6.01305C5.16091 5.9882 5.04509 5.92658 4.95407 5.83596C4.86305 5.74535 4.80091 5.6298 4.77551 5.5039C4.7501 5.37801 4.76256 5.24741 4.81132 5.12858C4.86007 5.00976 4.94293 4.90805 5.04945 4.83628C5.15596 4.76451 5.28134 4.7259 5.40978 4.72533Z" fill="white"/>
</svg>
