<svg width="16" height="16" viewBox="0 0 16 16" fill="none" xmlns="http://www.w3.org/2000/svg">
<g clip-path="url(#clip0_1754_16667)">
<path fill-rule="evenodd" clip-rule="evenodd" d="M2.5452 12.183H13.4548C13.5105 12.183 13.5556 12.1362 13.5556 12.0787V3.92206C13.5556 3.86411 13.5101 3.817 13.4541 3.817H2.5452C2.4904 3.817 2.44446 3.86365 2.44446 3.92206V12.0787C2.44445 12.0923 2.44703 12.1065 2.45206 12.1191C2.45708 12.1316 2.46445 12.1431 2.47374 12.1527C2.48304 12.1623 2.49407 12.1699 2.50621 12.1751C2.51836 12.1803 2.53205 12.183 2.5452 12.183ZM2.5452 13.3333H13.4548C14.1237 13.3333 14.6667 12.772 14.6667 12.0787V3.92206C14.6667 3.2288 14.1237 2.66667 13.4541 2.66667H2.5452C1.87631 2.66667 1.33334 3.2288 1.33334 3.92206V12.0787C1.33325 12.2435 1.36453 12.4067 1.42539 12.5589C1.48626 12.7112 1.57552 12.8496 1.68807 12.9661C1.80062 13.0826 1.93425 13.175 2.08132 13.238C2.2284 13.301 2.38603 13.3334 2.5452 13.3333Z" fill="white"/>
<path d="M2.07935 4.05L7.20868 7.71866C7.43468 7.88039 7.70556 7.96746 7.98347 7.9677C8.26137 7.96794 8.5324 7.88134 8.75868 7.72L13.9173 4.04066" stroke="white" stroke-width="1.5" stroke-linecap="round" stroke-linejoin="round"/>
</g>
<defs>
<clipPath id="clip0_1754_16667">
<rect width="16" height="16" fill="white"/>
</clipPath>
</defs>
</svg>
