<svg width="24" height="24" viewBox="0 0 24 24" fill="none" xmlns="http://www.w3.org/2000/svg">
<g clip-path="url(#clip0_1755_21063)">
<path d="M10.856 13.1441C9.74937 12.0479 8.855 10.7565 8.21799 9.33506C8.1594 9.19649 8.1439 9.04348 8.17351 8.89597C8.20312 8.74846 8.27647 8.61329 8.38399 8.50806L9.20299 7.69006C9.87399 7.01906 9.87399 6.07006 9.28799 5.48406L8.11399 4.31006C7.73894 3.93512 7.23032 3.72449 6.69999 3.72449C6.16966 3.72449 5.66105 3.93512 5.28599 4.31006L4.63399 4.96206C3.89299 5.70306 3.58399 6.77206 3.78399 7.83206C4.27799 10.4451 5.79599 13.3061 8.24499 15.7551C10.694 18.2041 13.555 19.7221 16.168 20.2161C17.228 20.4161 18.297 20.1071 19.038 19.3661L19.689 18.7151C20.0639 18.34 20.2746 17.8314 20.2746 17.3011C20.2746 16.7707 20.0639 16.2621 19.689 15.8871L18.516 14.7141C18.2347 14.4329 17.8532 14.2749 17.4555 14.2749C17.0577 14.2749 16.6763 14.4329 16.395 14.7141L15.492 15.6181C15.3868 15.7256 15.2516 15.7989 15.1041 15.8285C14.9566 15.8582 14.8036 15.8427 14.665 15.7841C13.2437 15.1459 11.9524 14.2509 10.856 13.1441V13.1441Z" stroke="#D6D6D6" stroke-width="1.5" stroke-linecap="round" stroke-linejoin="round"/>
</g>
<defs>
<clipPath id="clip0_1755_21063">
<rect width="24" height="24" fill="white"/>
</clipPath>
</defs>
</svg>
